<?xml version="1.0" encoding="UTF-8"?>
<svg id="Layer_1" xmlns="http://www.w3.org/2000/svg" version="1.1" viewBox="0 0 256 256">
  <!-- Generator: Adobe Illustrator 29.5.1, SVG Export Plug-In . SVG Version: 2.1.0 Build 141)  -->
  <defs>
    <style>
      .st0 {
        opacity: 0;
      }

      .st0, .st1 {
        isolation: isolate;
      }

      .st1 {
        fill: #fff;
        opacity: .2;
      }

      .st2 {
        fill: none;
        stroke: #3a3a3a;
        stroke-linecap: round;
        stroke-width: 10px;
      }

      .st3 {
        fill: #3a3a3a;
      }

      .st4 {
        fill: #d9a63b;
      }

      .st5 {
        fill: #f2c14e;
      }

      .st6 {
        stroke: #b8862f;
        stroke-opacity: .2;
        stroke-width: 2px;
      }
    </style>
  </defs>
  <ellipse id="SHADOW" class="st0" cx="128" cy="214" rx="96" ry="14"/>
  <path id="FOLDER_x5F_BACK" class="st4" d="M28,68c0-6.6,5.4-12,12-12h56c6.6,0,12,5.4,16,10.5l6,7.5h98c6.6,0,12,5.4,12,12v96c0,8.8-7.2,16-16,16H44c-8.8,0-16-7.2-16-16v-114Z"/>
  <g id="N_x5F_1">
    <path class="st2" d="M17.5,37.3l19.1,66.3"/>
    <path class="st3" d="M16.1,32.5c14.7,2,24.5,3.3,30.9-6.8l7.8,26.9c-6.5,10.2-16.3,8.9-30.9,6.8l-7.8-26.9Z"/>
    <ellipse class="st3" cx="19.6" cy="109.6" rx="18" ry="14" transform="translate(-29.6 9.7) rotate(-16.1)"/>
  </g>
  <g id="N_x5F_2">
    <path class="st2" d="M134.9,10.4v69"/>
    <path class="st3" d="M134.9,5.4c17.7,6,29.5,10,41.3,2v28c-11.8,8-23.6,4-41.3-2V5.4Z"/>
    <ellipse class="st3" cx="116.9" cy="80.4" rx="18" ry="14"/>
  </g>
  <g id="N_x5F_3">
    <path class="st2" d="M246.3,41.1l-20.7,65.8"/>
    <path class="st3" d="M247.8,36.4c11.1,9.8,18.5,16.3,29.6,11.4l-8.4,26.7c-11,4.9-18.4-1.6-29.6-11.4l8.4-26.7Z"/>
    <ellipse class="st3" cx="208.1" cy="102.5" rx="14" ry="18" transform="translate(47.9 270.3) rotate(-72.5)"/>
  </g>
  <g id="FOLDER_x5F_FRONT">
    <path class="st5" d="M38,82h180c7.7,0,14,6.3,14,14v86c0,11-9,20-20,20H44c-11,0-20-9-20-20v-86c0-7.7,6.3-14,14-14Z"/>
    <path class="st1" d="M38,96h180c5.5,0,10,4.5,10,10v4H28v-4c0-5.5,4.5-10,10-10Z"/>
    <path class="st6" d="M24,110h212"/>
  </g>
</svg>